<svg id="svg" version="1.1" xmlns="http://www.w3.org/2000/svg" xmlns:xlink="http://www.w3.org/1999/xlink" width="400" height="266.5" viewBox="0, 0, 400,266.5"><g id="svgg"><path id="path0" d="M247.813 165.027 C 164.330 220.709,95.940 266.357,95.835 266.467 C 95.730 266.577,164.124 266.667,247.822 266.667 L 400.000 266.667 400.000 165.200 C 400.000 109.393,399.910 63.746,399.800 63.760 C 399.690 63.775,331.296 109.345,247.813 165.027 " stroke="none" fill="#04a4db" fill-rule="evenodd"></path><path id="path1" d="M-0.000 101.495 C -0.000 183.633,0.065 202.966,0.340 202.860 C 0.702 202.721,303.958 0.618,304.387 0.229 C 304.528 0.101,237.313 0.000,152.320 0.000 L 0.000 0.000 -0.000 101.495 M229.400 70.164 C 228.491 70.746,228.197 71.137,229.000 70.696 C 229.612 70.359,230.570 69.618,230.400 69.613 C 230.327 69.611,229.877 69.859,229.400 70.164 M59.800 183.231 C 58.891 183.813,58.597 184.204,59.400 183.762 C 60.012 183.426,60.970 182.685,60.800 182.680 C 60.727 182.677,60.277 182.925,59.800 183.231 " stroke="none" fill="#1cb434" fill-rule="evenodd"></path><path id="path2" d="M304.267 0.401 C 304.047 0.597,265.827 26.105,219.333 57.085 C 172.840 88.066,132.268 115.106,129.174 117.174 C 126.080 119.242,95.750 139.465,61.774 162.115 L -0.000 203.297 -0.000 213.115 C -0.000 218.515,0.078 222.933,0.174 222.933 C 0.403 222.933,334.400 0.271,334.400 0.118 C 334.400 -0.219,304.650 0.060,304.267 0.401 M232.540 155.144 L 65.480 266.533 80.198 266.602 L 94.917 266.671 96.325 265.603 C 97.100 265.016,97.873 264.535,98.044 264.534 C 98.216 264.534,98.396 264.439,98.444 264.324 C 98.526 264.130,109.421 256.795,109.967 256.565 C 110.100 256.510,110.401 256.311,110.638 256.124 C 111.283 255.612,121.900 248.533,122.022 248.533 C 122.080 248.533,122.339 248.362,122.597 248.152 C 123.511 247.411,133.933 240.533,134.143 240.533 C 134.260 240.533,134.396 240.439,134.444 240.324 C 134.532 240.118,145.466 232.769,145.996 232.560 C 146.145 232.501,146.327 232.376,146.400 232.281 C 146.563 232.069,157.617 224.709,157.996 224.560 C 158.145 224.501,158.327 224.376,158.400 224.281 C 158.563 224.069,169.617 216.709,169.996 216.560 C 170.145 216.501,170.327 216.376,170.400 216.281 C 170.549 216.088,181.587 208.725,181.967 208.565 C 182.100 208.510,182.401 208.303,182.638 208.107 C 182.874 207.911,185.527 206.130,188.533 204.149 C 191.540 202.169,194.240 200.372,194.533 200.156 C 194.827 199.940,197.527 198.144,200.533 196.165 C 203.540 194.185,206.120 192.464,206.267 192.340 C 206.691 191.981,217.705 184.678,218.000 184.560 C 218.147 184.501,218.327 184.374,218.400 184.278 C 218.558 184.070,229.612 176.715,230.000 176.560 C 230.147 176.501,230.327 176.376,230.400 176.281 C 230.563 176.069,241.617 168.709,241.996 168.560 C 242.145 168.501,242.327 168.376,242.400 168.281 C 242.557 168.077,253.602 160.718,253.991 160.557 C 254.138 160.497,254.390 160.317,254.553 160.157 C 254.716 159.997,257.336 158.247,260.376 156.267 C 263.416 154.287,266.225 152.397,266.618 152.067 C 267.012 151.737,267.473 151.467,267.644 151.467 C 267.816 151.467,267.996 151.375,268.044 151.262 C 268.093 151.149,270.413 149.560,273.200 147.729 C 275.987 145.898,278.499 144.190,278.784 143.933 C 279.068 143.677,279.448 143.467,279.628 143.467 C 279.808 143.467,279.996 143.375,280.044 143.262 C 280.093 143.149,282.413 141.560,285.200 139.729 C 287.987 137.898,290.499 136.190,290.784 135.933 C 291.068 135.677,291.397 135.467,291.514 135.467 C 291.631 135.467,291.939 135.291,292.197 135.077 C 292.455 134.863,294.767 133.311,297.333 131.628 C 299.900 129.945,302.300 128.322,302.667 128.021 C 303.033 127.720,303.473 127.472,303.644 127.470 C 303.816 127.468,303.996 127.374,304.044 127.260 C 304.132 127.055,351.068 95.699,351.594 95.493 C 351.744 95.435,351.927 95.309,352.000 95.215 C 352.149 95.023,363.990 87.125,364.368 86.965 C 364.500 86.910,364.801 86.708,365.038 86.518 C 365.621 86.046,376.305 78.933,376.429 78.933 C 376.483 78.933,376.739 78.760,376.997 78.548 C 377.932 77.781,399.548 63.467,399.771 63.467 C 399.897 63.467,400.000 59.027,400.000 53.600 C 400.000 48.173,399.910 43.738,399.800 43.744 C 399.690 43.749,324.423 93.879,232.540 155.144 " stroke="none" fill="#fad30c" fill-rule="evenodd"></path><path id="path3" d="M167.400 111.685 L 0.000 223.320 0.000 244.993 L 0.000 266.667 32.528 266.667 L 65.057 266.667 147.128 211.933 C 192.268 181.830,229.320 157.140,229.467 157.067 C 229.613 156.993,232.313 155.195,235.467 153.071 C 238.620 150.946,241.408 149.086,241.662 148.938 C 242.019 148.729,351.817 75.530,393.000 48.046 L 400.000 43.374 400.000 21.687 L 400.000 0.000 367.400 0.025 L 334.800 0.049 167.400 111.685 " stroke="none" fill="#040404" fill-rule="evenodd"></path><path id="path4" d="M388.267 70.938 C 382.180 75.016,377.055 78.483,376.878 78.643 C 376.701 78.803,376.505 78.933,376.443 78.933 C 376.309 78.933,365.663 86.013,365.038 86.518 C 364.801 86.708,364.500 86.910,364.368 86.965 C 363.990 87.125,352.149 95.023,352.000 95.215 C 351.927 95.309,351.744 95.435,351.594 95.493 C 351.068 95.699,304.132 127.055,304.044 127.260 C 303.996 127.374,303.816 127.468,303.644 127.470 C 303.473 127.472,303.033 127.720,302.667 128.021 C 302.300 128.322,299.900 129.945,297.333 131.628 C 294.767 133.311,292.455 134.863,292.197 135.077 C 291.939 135.291,291.631 135.467,291.514 135.467 C 291.397 135.467,291.068 135.677,290.784 135.933 C 290.499 136.190,287.987 137.898,285.200 139.729 C 282.413 141.560,280.093 143.149,280.044 143.262 C 279.996 143.375,279.808 143.467,279.628 143.467 C 279.448 143.467,279.068 143.677,278.784 143.933 C 278.499 144.190,275.987 145.898,273.200 147.729 C 270.413 149.560,268.093 151.149,268.044 151.262 C 267.996 151.375,267.816 151.467,267.644 151.467 C 267.473 151.467,267.012 151.737,266.618 152.067 C 266.225 152.397,263.416 154.287,260.376 156.267 C 257.336 158.247,254.716 159.997,254.553 160.157 C 254.390 160.317,254.138 160.497,253.991 160.557 C 253.602 160.718,242.557 168.077,242.400 168.281 C 242.327 168.376,242.145 168.501,241.996 168.560 C 241.617 168.709,230.563 176.069,230.400 176.281 C 230.327 176.376,230.147 176.501,230.000 176.560 C 229.612 176.715,218.558 184.070,218.400 184.278 C 218.327 184.374,218.147 184.501,218.000 184.560 C 217.705 184.678,206.691 191.981,206.267 192.340 C 206.120 192.464,203.540 194.185,200.533 196.165 C 197.527 198.144,194.827 199.940,194.533 200.156 C 194.240 200.372,191.540 202.169,188.533 204.149 C 185.527 206.130,182.874 207.911,182.638 208.107 C 182.401 208.303,182.100 208.510,181.967 208.565 C 181.587 208.725,170.549 216.088,170.400 216.281 C 170.327 216.376,170.145 216.501,169.996 216.560 C 169.617 216.709,158.563 224.069,158.400 224.281 C 158.327 224.376,158.145 224.501,157.996 224.560 C 157.617 224.709,146.563 232.069,146.400 232.281 C 146.327 232.376,146.145 232.501,145.996 232.560 C 145.466 232.769,134.532 240.118,134.444 240.324 C 134.396 240.439,134.260 240.533,134.143 240.533 C 133.933 240.533,123.511 247.411,122.597 248.152 C 122.339 248.362,122.080 248.533,122.022 248.533 C 121.900 248.533,111.283 255.612,110.638 256.124 C 110.401 256.311,110.100 256.510,109.967 256.565 C 109.655 256.697,98.576 264.061,98.400 264.254 C 98.327 264.335,97.940 264.569,97.541 264.775 C 96.757 265.179,94.884 266.750,95.348 266.615 C 95.541 266.559,395.847 66.409,399.847 63.671 C 400.025 63.549,399.982 63.484,399.733 63.500 C 399.513 63.513,394.353 66.861,388.267 70.938 " stroke="none" fill="#9cbc64" fill-rule="evenodd"></path></g></svg>